# xmcd
#
# Track frame offsets: 
#        150
#        17185
#        46310
#        64992
#        87077
#        108555
#        128970
#        143030
#        161882
#        176460
#        192037
#        208810
#        255038
#
# Disc length: 3426 seconds
#
# Revision: 0
# Processed by: cddbd v1.5.1PL2 Copyright (c) Steve Scherf et al.
# Submitted via: ExactAudioCopy v0.95b4
#
DISCID=b20d600d
DTITLE=Lyle Lovett - The Road to Ensenada
DYEAR=2004
DGENRE=Country
TTITLE0=Don't Touch My Hat
TTITLE1=Her First Mistake
TTITLE2=Fiona
TTITLE3=That's Right (You're Not From Texas
TTITLE4=Who Loves You Better
TTITLE5=Private Conversation
TTITLE6=Promises
TTITLE7=It Ought to be Easier
TTITLE8=I Can't Love You Anymore
TTITLE9=Long Tall Texan
TTITLE10=Christmas Morning
TTITLE11=The Road to Ensenada
TTITLE12=Girl in the Corner
EXTD=
EXTT0=
EXTT1=
EXTT2=
EXTT3=
EXTT4=
EXTT5=
EXTT6=
EXTT7=
EXTT8=
EXTT9=
EXTT10=
EXTT11=
EXTT12=
PLAYORDER=
